PathFileType	4	(X/Y/Z)	C:/Users/opensim2020/Desktop/walking_exp_matlab/subject01_walking05_straight_04.trc	
DataRate	CameraRate	NumFrames	NumMarkers	Units	OrigDataRate	OrigDataStartFrame	OrigNumFrames	
100.00	100.00	8	43	mm	100.00	2845	283	
Frame#	Time	LFHD			RFHD			LBHD			RBHD			C7			T10			CLAV			STRN			RBAK			LSHO			LUPA			LELB			LFRM			LWRA			LWRB			LFIN			RSHO			RUPA			RELB			RFRM			RWRA			RWRB			RFIN			LASI			RASI			LPSI			RPSI			LTHI			LKNE			LTIB			LANK			LHEE			LTOE			RTHI			RKNE			RTIB			RANK			RHEE			RTOE			*39			*40			*41			*42			
		X1	Y1	Z1	X2	Y2	Z2	X3	Y3	Z3	X4	Y4	Z4	X5	Y5	Z5	X6	Y6	Z6	X7	Y7	Z7	X8	Y8	Z8	X9	Y9	Z9	X10	Y10	Z10	X11	Y11	Z11	X12	Y12	Z12	X13	Y13	Z13	X14	Y14	Z14	X15	Y15	Z15	X16	Y16	Z16	X17	Y17	Z17	X18	Y18	Z18	X19	Y19	Z19	X20	Y20	Z20	X21	Y21	Z21	X22	Y22	Z22	X23	Y23	Z23	X24	Y24	Z24	X25	Y25	Z25	X26	Y26	Z26	X27	Y27	Z27	X28	Y28	Z28	X29	Y29	Z29	X30	Y30	Z30	X31	Y31	Z31	X32	Y32	Z32	X33	Y33	Z33	X34	Y34	Z34	X35	Y35	Z35	X36	Y36	Z36	X37	Y37	Z37	X38	Y38	Z38	X39	Y39	Z39	X40	Y40	Z40	X41	Y41	Z41	X42	Y42	Z42	X43	Y43	Z43	

71	0.700	1488.38879	828.67206	1669.67029	1377.27490	803.05103	1675.49658	1467.17456	943.26428	1624.41321	1349.55444	920.48193	1629.64355	1424.43494	975.16882	1431.73425	1420.13342	1016.20178	1139.98132	1437.67871	832.82654	1361.64001	1445.79639	792.33630	1206.84021	1342.22656	1026.62158	1238.37183	1591.87183	910.37543	1395.87988	1667.07251	977.12860	1216.62207	1659.25439	1014.83728	1073.15833	1681.79358	1009.63593	959.38782	1656.00366	971.55377	824.90594	1685.68945	1023.67175	837.73737	1681.30383	1005.10614	751.77368	1282.91003	884.81775	1390.29102	1171.69629	910.84509	1190.22131	1164.96851	889.19867	1064.26489	1148.82214	810.61981	967.19073	1188.43628	690.06866	902.19891	1145.64014	722.77631	881.45404	1155.85547	653.66077	834.26605	1533.23279	847.13135	932.11768	1315.24011	850.07092	929.41083	1486.24231	1035.13306	945.27942	1342.30957	1035.09680	952.80695	1604.01746	816.09747	611.25488	1579.38477	783.62213	483.90115	1589.34998	773.44672	299.52194	1542.41626	708.41132	84.39140	1482.32849	733.70593	43.59554	1559.49744	561.17303	91.17578	1273.33679	966.96460	606.19159	1303.58020	995.88031	448.91318	1303.35046	1085.06580	296.16165	1360.46179	1152.47070	98.88349	1410.72363	1206.21716	72.80630	1375.00671	1018.09961	39.99542	1398.10388	817.34247	1709.35278	-3101.86011	1973.13220	1023.28748	-3140.56128	2012.59375	1022.02759			 
72	0.710	1490.48364	818.97797	1668.81982	1379.40796	793.05518	1674.71143	1469.03442	933.64514	1623.82568	1351.32263	910.47528	1629.03296	1426.14978	965.62164	1430.85107	1421.49670	1006.28937	1139.06409	1439.12964	823.13629	1360.79089	1446.84192	782.59308	1206.10266	1343.66418	1017.00024	1237.68787	1593.50598	900.65918	1394.72705	1668.27319	967.64056	1215.35303	1659.85840	1005.64795	1071.99731	1682.18506	1000.95117	958.25562	1656.24817	963.36719	823.57629	1685.95532	1015.31537	836.62213	1681.09326	997.50342	750.46429	1284.45630	875.36157	1389.85632	1172.76538	901.12292	1190.11499	1165.71143	879.43738	1064.05469	1149.48315	800.93091	967.10669	1189.07629	680.33624	901.96771	1146.17395	712.93109	881.35748	1156.44678	643.88275	834.17206	1533.40015	836.36676	930.98993	1315.38000	840.66571	928.74060	1487.77710	1024.73364	944.44122	1343.85095	1025.33325	952.19354	1603.99500	806.04834	610.17267	1579.36865	773.63953	483.06213	1588.71741	761.16986	298.70712	1541.37195	693.78143	84.45725	1481.60266	718.92023	43.24132	1556.28210	546.12769	92.69176	1273.60388	959.28528	605.91809	1303.44275	989.05701	448.61038	1303.30212	1080.39136	296.92606	1360.02832	1151.09973	100.92598	1410.30945	1205.37366	75.91695	1374.99023	1017.91766	40.02600	1400.09497	807.35956	1708.51038	-3101.92407	1973.10461	1023.32190	-3140.56201	2012.57483	1022.09167			 
73	0.720	1492.51489	809.11462	1667.99084	1381.48792	783.09393	1673.91101	1470.85803	923.86383	1623.19788	1353.12244	900.44470	1628.49194	1428.03467	955.99927	1430.06116	1422.82642	996.28027	1138.18787	1440.62549	813.42834	1360.02051	1447.93835	772.57446	1205.42615	1345.26904	1007.33856	1236.95667	1595.22778	890.87451	1393.59668	1669.50330	957.97235	1213.93750	1660.64502	996.21271	1070.79321	1682.82068	991.77893	956.98901	1656.52295	954.68488	822.24805	1686.18787	1006.57776	835.36865	1681.00720	989.17029	749.11694	1286.07043	865.81586	1389.30542	1174.05359	891.37231	1189.89856	1166.56384	869.81110	1063.90137	1150.21716	791.32916	966.83209	1189.48022	670.70972	901.62634	1146.72058	703.54443	880.93549	1156.99194	634.67426	833.66864	1533.56140	825.53784	929.97028	1315.42310	831.04669	928.01599	1489.34778	1014.27100	943.68463	1345.49060	1015.48999	951.60651	1603.65149	794.74457	609.55005	1579.14209	763.09772	482.24869	1588.25232	749.71161	297.96896	1540.15198	681.63208	83.79766	1480.55615	707.04407	42.61847	1553.24451	533.65192	92.66177	1273.61108	951.43719	605.80554	1303.50330	982.12292	448.45029	1303.34229	1075.62952	298.08411	1359.39844	1149.42932	103.01126	1409.64160	1204.38953	79.16824	1374.89221	1017.76611	40.04281	1402.30273	797.25977	1707.81812	-3101.99219	1973.01453	1023.80621	-3140.62598	2012.56116	1022.05621			 
74	0.730	1494.62915	799.28552	1667.22876	1383.66687	773.02991	1673.20142	1472.80359	914.09534	1622.67542	1355.11780	890.47644	1627.99097	1429.92053	946.31830	1429.18921	1424.25879	986.10181	1137.26843	1442.33850	803.60602	1359.41052	1449.03516	762.56909	1204.83960	1347.07861	998.00494	1236.34290	1597.06250	881.06671	1392.47925	1670.89258	948.11487	1212.55688	1661.61279	986.55249	1069.54626	1683.42944	982.35883	955.64636	1656.96912	945.47552	820.96307	1686.38464	997.40375	833.99127	1681.21667	980.18958	747.79462	1287.77405	856.30975	1388.90442	1175.56250	881.82178	1189.84351	1167.70740	860.25104	1063.80225	1150.90332	782.16071	966.58667	1190.45667	662.08362	900.68323	1147.29785	694.48956	880.45862	1157.52014	625.71313	832.78601	1533.78088	814.55347	929.01904	1315.92590	821.70325	927.26538	1490.81360	1002.79419	942.65173	1347.13245	1005.41809	951.00800	1603.01245	782.30133	609.21973	1578.54175	752.03961	481.49869	1587.61108	738.98419	296.95428	1538.83203	671.99707	82.67973	1479.45313	698.15674	41.44450	1550.24121	523.71631	90.99411	1273.92297	943.25024	605.79614	1303.21924	974.54950	448.08304	1302.89807	1070.75867	299.46729	1358.78430	1148.07471	105.50968	1408.82739	1203.28345	82.66547	1374.78271	1017.49207	39.98278	1404.47095	787.23566	1707.07410	-3101.91016	1973.17200	1023.36511	-3140.58423	2012.54834	1021.99866			 
75	0.740	1496.78748	789.44354	1666.48767	1385.93726	763.07739	1672.45776	1474.75781	904.26917	1622.11572	1357.18848	880.49518	1627.46265	1432.10107	936.54462	1428.37769	1425.73120	975.72516	1136.32764	1444.06897	793.77814	1358.80347	1450.21216	752.31854	1204.37866	1348.86450	987.99249	1235.39856	1599.00867	871.19458	1391.37500	1672.45520	938.12830	1211.21692	1662.79932	976.65521	1068.29150	1684.41516	972.59351	954.42267	1657.56335	935.73877	819.72876	1687.31641	987.61615	832.78693	1681.81323	970.64355	746.63318	1289.64197	846.85132	1388.50549	1177.06592	872.30878	1189.73865	1168.87109	850.89069	1063.73633	1151.80005	773.15747	966.22516	1190.95972	653.37164	899.69885	1147.69666	685.99969	879.86530	1157.92029	617.48224	831.56616	1534.13562	803.41425	928.19208	1316.00769	811.37311	926.81873	1492.38147	992.01410	941.86389	1348.82507	995.17291	950.43665	1602.03467	769.10309	609.00055	1577.61108	740.21985	481.13040	1586.86780	729.06451	295.84558	1537.28613	664.59436	80.66917	1478.09692	691.65479	39.80762	1547.56848	516.32819	88.18527	1273.93372	934.29016	605.32117	1303.06006	966.50146	447.69757	1302.82910	1065.29065	300.73346	1357.88342	1146.35400	108.06412	1407.85229	1202.05457	86.48412	1374.60010	1017.17194	39.92361	1406.74475	777.17725	1706.44397	-3101.86060	1973.14575	1023.22943	-3140.62988	2012.61755	1022.04163			 
76	0.750	1498.95032	779.60986	1665.73096	1388.15552	753.15265	1671.78125	1476.86279	894.49060	1621.52771	1359.32751	870.60455	1626.88660	1434.26379	926.78619	1427.48633	1427.20837	965.27588	1135.38831	1445.80884	783.80847	1358.18799	1451.44348	741.95966	1203.79443	1350.69336	977.82404	1234.47546	1601.01758	861.19470	1390.27429	1674.07373	927.95160	1209.85950	1664.16650	966.48761	1066.98792	1685.46436	962.31158	953.01453	1658.28723	925.48340	818.48761	1688.16199	977.38098	831.45532	1682.17700	960.14575	745.08685	1291.52356	837.37866	1388.23132	1178.75244	862.93811	1189.62427	1170.22742	841.67987	1063.68457	1152.66724	764.45929	965.78717	1191.41846	645.03943	898.46252	1148.13940	677.77313	879.00037	1158.24451	609.70575	830.04370	1534.56384	792.06836	927.54761	1316.40405	801.22833	926.17474	1493.87451	981.00165	941.06122	1350.51892	984.71576	949.82898	1600.92505	755.42804	609.00696	1576.34509	728.10016	480.77194	1585.86658	719.76270	294.41412	1535.69995	659.29553	78.24193	1476.93506	687.50488	37.93859	1544.64221	510.91522	83.87450	1274.19348	924.92859	605.11932	1302.88513	958.04901	447.42886	1302.29700	1059.55542	302.09406	1356.85815	1144.38916	110.93043	1406.65491	1200.48987	90.58511	1374.39819	1016.83301	39.88385	1408.94348	767.22253	1705.73157	-3101.89478	1973.21399	1023.49042	-3140.56201	2012.60754	1022.04620			 
77	0.760	1501.21655	769.82239	1665.03064	1390.43457	743.31512	1671.01636	1478.98682	884.66748	1620.94812	1361.50806	860.77808	1626.24170	1436.58118	916.98145	1426.51428	1428.88940	954.52716	1134.34338	1447.65369	773.83624	1357.56433	1452.65857	731.60742	1203.30188	1352.62939	967.64191	1233.56104	1603.07874	851.05420	1389.12976	1675.85803	917.63031	1208.52002	1665.71802	956.09100	1065.67542	1686.76331	951.76141	951.67102	1659.24927	914.68176	817.23346	1689.04492	966.65216	830.02191	1683.13257	949.21155	743.82935	1293.64160	827.90411	1387.74475	1180.61340	853.71771	1189.50513	1171.67200	832.69562	1063.65881	1153.63379	756.16541	965.38361	1191.89795	637.03009	897.00299	1148.54016	670.01331	877.94360	1158.46875	602.27362	828.23132	1534.98743	780.43329	926.75305	1316.74597	790.75610	925.46619	1495.37903	969.57922	940.17535	1352.18103	973.99408	949.18970	1599.23694	741.68665	608.93268	1574.55762	715.56042	480.44574	1584.83325	711.11749	292.76312	1534.25903	655.78052	75.71357	1475.95850	685.64136	36.17482	1541.57959	507.34293	78.50079	1274.48767	915.24927	604.71686	1302.54834	948.91040	446.82730	1302.12061	1053.27698	303.55658	1355.85779	1142.07141	113.86008	1405.34436	1198.72754	94.95747	1374.26501	1016.57251	39.91074	1411.25281	757.32556	1705.06067	-3101.91919	1973.10193	1023.32214	-3140.59595	2012.55713	1021.96765			 
78	0.770	1503.49426	760.03381	1664.27942	1392.69128	733.62482	1670.28101	1481.35645	874.93518	1620.13782	1363.80310	851.04028	1625.52844	1439.00525	907.17358	1425.45740	1430.66760	943.67438	1133.26318	1449.66467	763.80292	1357.02832	1454.06335	721.07574	1202.87781	1354.64990	957.44104	1232.55273	1605.25488	840.82251	1387.97351	1677.78967	907.16089	1207.21497	1667.43188	945.43732	1064.33252	1688.14905	940.79315	950.24487	1660.39355	903.40820	815.99805	1690.23328	955.49072	828.55743	1684.29504	937.66223	742.54095	1295.60486	818.46698	1387.59192	1182.42639	844.65564	1189.41003	1173.16870	823.97443	1063.49585	1154.60583	748.08295	964.86987	1192.32849	629.41797	895.30664	1148.83093	662.58252	876.69159	1158.67761	595.35449	826.25818	1535.63867	768.42035	926.02203	1317.29517	779.99243	924.77594	1496.91492	958.65186	939.46484	1353.82227	962.89203	948.52509	1596.96265	728.28229	608.63715	1572.76917	703.38898	479.90085	1583.82617	703.19666	290.85550	1532.63733	653.56439	72.80692	1474.82300	685.03827	34.29647	1538.10974	504.93643	72.50201	1274.87830	904.84650	604.13348	1302.24939	939.11737	446.12576	1301.49756	1046.53967	304.86661	1354.59485	1139.52417	117.01287	1404.04736	1196.73596	99.63318	1374.03650	1016.14771	39.80849	1413.52942	747.60193	1704.24438	-3101.91504	1973.07532	1023.30780	-3140.45996	2012.53467	1021.97101			 
